<svg 
          width="211"
          height="209" fill="none"
          xmlns="http://www.w3.org/2000/svg">
          <path d="M 105.50000986398453 209 C 76.15135636799674 209 51.32782303964994 198.80802026207064 30.770837854326246 178.2950577912507 C 10.213852669002545 157.78209532043078 0 133.26975210213368 0 104.5 C 0 75.73024789786633 10.213852669002545 51.08888815067432 30.770837854326246 30.704937287318852 C 51.32782303964994 10.19197481649893 76.28064607929988 0 105.50000986398453 0 C 134.71937364866918 0 159.67219668831913 10.19197481649893 180.22918187364283 30.704937287318852 C 200.78616705896653 51.21789975813877 211 75.73024789786633 211 104.5 C 211 133.26975210213368 200.78616705896653 157.91110692789525 180.22918187364283 178.2950577912507 C 159.80148516662422 198.80802026207064 134.8486633599723 209 105.50000986398453 209 Z M 133.68506335623243 133.39876740067092 C 141.5717055372716 125.52901443728693 145.57964774822997 115.85308420510938 145.57964774822997 104.62901037710684 C 145.57964774822997 93.40493654910429 141.70099463207572 83.72901123835716 133.68506335623243 75.85925827497317 C 125.79842117519325 67.98950531158918 116.3603036915144 63.99012148821795 105.50000986398453 63.99012148821795 C 94.63971603645466 63.99012148821795 85.20159855277582 67.98950531158918 77.31495637173664 75.85925827497317 C 69.42831419069746 83.72901123835716 65.42035225177003 93.40493654910429 65.42035225177003 104.62901037710684 C 65.42035225177003 115.85308420510938 69.42831419069746 125.52901443728693 77.31495637173664 133.39876740067092 C 85.20159855277582 141.26852036405492 94.63971603645466 145.26789926599574 105.50000986398453 145.26789926599574 C 116.3603036915144 145.1388869183943 125.79842117519325 141.26852036405492 133.68506335623243 133.39876740067092 Z" fill="rgb(255,144,64)"/>
        </svg>